<svg version="1.1" xmlns="http://www.w3.org/2000/svg" viewBox="0 0 835.2422485351562 275.828125" width="835.2422485351562" height="275.828125">
  <!-- svg-source:excalidraw -->
  
  <defs>
    <style class="style-fonts">
      @font-face {
        font-family: 'Grotesk';
        src: url('/static/fonts/SpaceGrotesk-VariableFont_wght.ttf') 
        }
    </style>
  </defs>

  <rect x="0" y="0" width="835.2422485351562" height="275.828125" fill="#ffffff"></rect><g stroke-linecap="round" transform="translate(320.951171875 10) rotate(0 74.5 17.5)"><path d="M6.94 -1.7 L144.31 0.74 L148.56 5.81 L147.32 29.91 L145.51 33.07 L141.27 34.62 L6.49 32.91 L-1.23 28.71 L-0.29 8.83 L3 3.87 L9.56 1.89" stroke="none" stroke-width="0" fill="#ffc9c9"></path><path d="M8.75 0 M8.75 0 C46.49 0.28, 85.8 -0.41, 140.25 0 M8.75 0 C56.8 0.51, 105.02 -0.07, 140.25 0 M140.25 0 C146.53 -1.74, 147.5 4.26, 149 8.75 M140.25 0 C147.42 0.26, 151.22 4.58, 149 8.75 M149 8.75 C148.52 12.71, 149.77 19.25, 149 26.25 M149 8.75 C149.17 15.97, 148.46 21.12, 149 26.25 M149 26.25 C147.52 33.01, 146.52 34.04, 140.25 35 M149 26.25 C147.98 29.98, 147.46 36.26, 140.25 35 M140.25 35 C88.5 34.02, 36.89 35.88, 8.75 35 M140.25 35 C98.6 35.96, 58.49 36.8, 8.75 35 M8.75 35 C1.99 36.27, -1.55 31.13, 0 26.25 M8.75 35 C3.16 34.34, 1.26 31.37, 0 26.25 M0 26.25 C-0.12 20.95, -1.72 18.8, 0 8.75 M0 26.25 C0.67 23.15, -0.42 19.51, 0 8.75 M0 8.75 C-0.73 2.83, 2.37 0.88, 8.75 0 M0 8.75 C1.62 1.76, 1.7 1.79, 8.75 0" stroke="#1e1e1e" stroke-width="1" fill="none"></path></g><g transform="translate(356.93121337890625 15) rotate(0 38.51995849609375 12.5)"><text x="38.51995849609375" y="0" font-family="Grotesk" font-size="20px" fill="#1e1e1e" text-anchor="middle" style="white-space: pre;" direction="ltr" dominant-baseline="text-before-edge">Selenium</text></g><g stroke-linecap="round" transform="translate(66.31640625 154.62890625) rotate(0 74.5 17.5)"><path d="M8.75 0 M8.75 0 C54.3 1.43, 101.89 -0.51, 140.25 0 M8.75 0 C48.3 -0.61, 86.88 -1.3, 140.25 0 M140.25 0 C144.91 -1, 147.81 2, 149 8.75 M140.25 0 C144.57 0.27, 147.6 0.8, 149 8.75 M149 8.75 C148.06 15.05, 147.61 20.14, 149 26.25 M149 8.75 C148.71 12.08, 148.94 17.59, 149 26.25 M149 26.25 C148.26 32.09, 148.07 36.74, 140.25 35 M149 26.25 C151.04 30.55, 147.95 34.98, 140.25 35 M140.25 35 C95.67 34.56, 53.34 32.9, 8.75 35 M140.25 35 C112.63 34.68, 86.28 33.37, 8.75 35 M8.75 35 C1.43 35.09, 1.27 30.22, 0 26.25 M8.75 35 C0.7 35.5, 0.76 32.75, 0 26.25 M0 26.25 C-0.97 20.76, -0.55 15.68, 0 8.75 M0 26.25 C0.29 19.31, -0.81 13.87, 0 8.75 M0 8.75 C0.74 4.25, 1.11 1.94, 8.75 0 M0 8.75 C-0.97 4.13, 3.15 1.87, 8.75 0" stroke="#1e1e1e" stroke-width="1" fill="none"></path></g><g transform="translate(93.51644897460938 159.62890625) rotate(0 47.299957275390625 12.5)"><text x="47.299957275390625" y="0" font-family="Virgil, Segoe UI Emoji" font-size="20px" fill="#1e1e1e" text-anchor="middle" style="white-space: pre;" direction="ltr" dominant-baseline="text-before-edge">WebDriver</text></g><g stroke-linecap="round" transform="translate(330.2890625 152.3359375) rotate(0 74.5 17.5)"><path d="M8.75 0 M8.75 0 C55.6 1.87, 101.24 -0.92, 140.25 0 M8.75 0 C47.78 1.75, 87.72 1.17, 140.25 0 M140.25 0 C147.11 0, 147.45 3.54, 149 8.75 M140.25 0 C144.79 -0.24, 150.32 5.12, 149 8.75 M149 8.75 C150.22 12.31, 147.47 16.2, 149 26.25 M149 8.75 C150 14.06, 148.48 19.8, 149 26.25 M149 26.25 C150.4 31.62, 144.71 36.2, 140.25 35 M149 26.25 C149.33 30.3, 147.53 33.81, 140.25 35 M140.25 35 C88.74 34.87, 38.68 34.03, 8.75 35 M140.25 35 C109.86 35.89, 78.09 36.93, 8.75 35 M8.75 35 C3.54 33.45, -0.49 31.33, 0 26.25 M8.75 35 C4.47 34.23, -2.28 31.83, 0 26.25 M0 26.25 C-1.01 23.3, -1.69 15.88, 0 8.75 M0 26.25 C-0.3 18.65, 0.82 11.51, 0 8.75 M0 8.75 C-1.9 2.61, 1.04 -1.32, 8.75 0 M0 8.75 C1.2 2.97, 1.34 -1.98, 8.75 0" stroke="#1e1e1e" stroke-width="1" fill="none"></path></g><g transform="translate(384.799072265625 157.3359375) rotate(0 19.989990234375 12.5)"><text x="19.989990234375" y="0" font-family="Virgil, Segoe UI Emoji" font-size="20px" fill="#1e1e1e" text-anchor="middle" style="white-space: pre;" direction="ltr" dominant-baseline="text-before-edge">IDE</text></g><g stroke-linecap="round" transform="translate(627.46875 152.05859375) rotate(0 74.5 17.5)"><path d="M8.75 0 M8.75 0 C44.99 -1.25, 79.72 -1.62, 140.25 0 M8.75 0 C61.37 1.28, 113.02 1.14, 140.25 0 M140.25 0 C146.38 0.56, 148.29 3.45, 149 8.75 M140.25 0 C147.22 -0.42, 149.97 1.38, 149 8.75 M149 8.75 C147.56 14.5, 149.09 19.06, 149 26.25 M149 8.75 C149.87 13.62, 149.82 17.83, 149 26.25 M149 26.25 C150.48 33.7, 146.42 36.4, 140.25 35 M149 26.25 C146.83 29.95, 145.44 34.59, 140.25 35 M140.25 35 C98.13 36.9, 54.16 37.12, 8.75 35 M140.25 35 C101.29 33.84, 62.04 33.46, 8.75 35 M8.75 35 C4.83 35.73, 0.94 30.32, 0 26.25 M8.75 35 C1.1 37.24, -2.04 33.89, 0 26.25 M0 26.25 C-0.25 20.24, -0.38 15.01, 0 8.75 M0 26.25 C0.64 20.99, -0.92 13.92, 0 8.75 M0 8.75 C-0.56 1.99, 1.73 1.27, 8.75 0 M0 8.75 C0.17 3.65, 1.38 2, 8.75 0" stroke="#1e1e1e" stroke-width="1" fill="none"></path></g><g transform="translate(681.8987655639648 157.05859375) rotate(0 20.069984436035156 12.5)"><text x="20.069984436035156" y="0" font-family="Virgil, Segoe UI Emoji" font-size="20px" fill="#1e1e1e" text-anchor="middle" style="white-space: pre;" direction="ltr" dominant-baseline="text-before-edge">Grid</text></g><g stroke-linecap="round"><g transform="translate(405.06928730341804 50.41015625) rotate(0 -144.75137009274786 50.52725241474809)"><path d="M1.14 -0.23 C-47.37 16.94, -242.16 85.37, -290.64 102.45 M0.28 -1.4 C-47.88 15.47, -239.84 83.77, -288.29 100.69" stroke="#1e1e1e" stroke-width="1" fill="none"></path></g><g transform="translate(405.06928730341804 50.41015625) rotate(0 -144.75137009274786 50.52725241474809)"><path d="M-265.5 80.5 C-271.82 88.58, -279.92 96.31, -288.2 100.11 M-265 82.41 C-273.78 87.95, -282.4 94.7, -288.08 101.35" stroke="#1e1e1e" stroke-width="1" fill="none"></path></g><g transform="translate(405.06928730341804 50.41015625) rotate(0 -144.75137009274786 50.52725241474809)"><path d="M-258.67 99.85 C-267.19 101.5, -277.59 102.75, -288.2 100.11 M-258.17 101.76 C-269.43 100.12, -280.56 99.73, -288.08 101.35" stroke="#1e1e1e" stroke-width="1" fill="none"></path></g></g><mask></mask><g stroke-linecap="round"><g transform="translate(405.6820328878371 53.4765625) rotate(0 -0.565378863667493 45.30598160064778)"><path d="M0.32 -0.35 C0.11 15.13, -0.45 76.84, -0.55 92.19 M-0.98 -1.58 C-1.39 13.59, -1.46 74.46, -1.44 90.23" stroke="#1e1e1e" stroke-width="1" fill="none"></path></g><g transform="translate(405.6820328878371 53.4765625) rotate(0 -0.565378863667493 45.30598160064778)"><path d="M-12.27 62.19 C-7.72 72.61, -4.78 82.17, -0.64 89.62 M-11.51 61.08 C-8.13 72.58, -3.54 83.28, -1.27 89.58" stroke="#1e1e1e" stroke-width="1" fill="none"></path></g><g transform="translate(405.6820328878371 53.4765625) rotate(0 -0.565378863667493 45.30598160064778)"><path d="M8.25 62.21 C5.51 72.67, 1.16 82.22, -0.64 89.62 M9.01 61.1 C5.04 72.51, 2.26 83.2, -1.27 89.58" stroke="#1e1e1e" stroke-width="1" fill="none"></path></g></g><mask></mask><g stroke-linecap="round"><g transform="translate(406.0964285695906 51.96875) rotate(0 154.51413101332025 44.50549310602247)"><path d="M-0.32 0.61 C51.07 15.36, 257.91 73.06, 309.35 87.8 M1.72 -0.12 C52.92 14.87, 257.87 74.58, 308.81 89.13" stroke="#1e1e1e" stroke-width="1" fill="none"></path></g><g transform="translate(406.0964285695906 51.96875) rotate(0 154.51413101332025 44.50549310602247)"><path d="M279.9 92.48 C289.82 90.03, 303.5 88.61, 310.4 88.14 M278.09 90.26 C290.33 90.13, 299.73 89.09, 307.88 89.2" stroke="#1e1e1e" stroke-width="1" fill="none"></path></g><g transform="translate(406.0964285695906 51.96875) rotate(0 154.51413101332025 44.50549310602247)"><path d="M285.59 72.77 C293.19 77.93, 304.66 84.14, 310.4 88.14 M283.79 70.54 C293.83 77.55, 301.16 83.66, 307.88 89.2" stroke="#1e1e1e" stroke-width="1" fill="none"></path></g></g><mask></mask><g transform="translate(342.7578125 213.640625) rotate(0 64.34396362304688 10)"><text x="0" y="0" font-family="Virgil, Segoe UI Emoji" font-size="16px" fill="#ff8787" text-anchor="start" style="white-space: pre;" direction="ltr" dominant-baseline="text-before-edge">Record and Play</text></g><g transform="translate(292.93359375 242.71484375) rotate(0 120.3199234008789 10)"><text x="0" y="0" font-family="Virgil, Segoe UI Emoji" font-size="16px" fill="#ff8787" text-anchor="start" style="white-space: pre;" direction="ltr" dominant-baseline="text-before-edge">Chrome and Firefox Extentions</text></g><g transform="translate(10 212.78125) rotate(0 110.03993225097656 10)"><text x="0" y="0" font-family="Virgil, Segoe UI Emoji" font-size="16px" fill="#ff8787" text-anchor="start" style="white-space: pre;" direction="ltr" dominant-baseline="text-before-edge">desktop website automation</text></g><g transform="translate(16.888381958007812 245.828125) rotate(0 101.7679443359375 10)"><text x="0" y="0" font-family="Virgil, Segoe UI Emoji" font-size="16px" fill="#ff8787" text-anchor="start" style="white-space: pre;" direction="ltr" dominant-baseline="text-before-edge">mobile website automation</text></g><g transform="translate(629.40234375 217.93359375) rotate(0 97.91995239257812 20)"><text x="0" y="0" font-family="Virgil, Segoe UI Emoji" font-size="16px" fill="#ff8787" text-anchor="start" style="white-space: pre;" direction="ltr" dominant-baseline="text-before-edge">Run tests in Multiple </text><text x="0" y="20" font-family="Virgil, Segoe UI Emoji" font-size="16px" fill="#ff8787" text-anchor="start" style="white-space: pre;" direction="ltr" dominant-baseline="text-before-edge">OS combinations remotely</text></g></svg>
